<svg xmlns="http://www.w3.org/2000/svg" xmlns:xlink="http://www.w3.org/1999/xlink" viewBox="0 0 375 667"><defs><style>.cls-1,.cls-7{fill:none;}.cls-2{clip-path:url(#clip-path);}.cls-3{fill:url(#radial-gradient);}.cls-4,.cls-6{fill:#fff;}.cls-5,.cls-6{isolation:isolate;}.cls-6{font-size:16px;font-family:ArialMT, Arial;}.cls-7{stroke:#fff;stroke-linecap:round;stroke-miterlimit:10;stroke-width:6px;}</style><clipPath id="clip-path"><rect class="cls-1" width="375" height="667"/></clipPath><radialGradient id="radial-gradient" cx="-117.35" cy="729.62" r="0.53" gradientTransform="matrix(664.88, -54.03, -63.75, -789.06, 124716.13, 569567.32)" gradientUnits="userSpaceOnUse"><stop offset="0" stop-color="#02b5ed"/><stop offset="0.23" stop-color="#02a6e3"/><stop offset="0.51" stop-color="#007abb"/><stop offset="1" stop-color="#094a82"/></radialGradient></defs><title>Asset 4</title><g id="Layer_2" data-name="Layer 2"><g id="Layer_1-2" data-name="Layer 1"><g class="cls-2"><g id="login"><rect class="cls-3" width="375" height="667"/><g id="Group_1" data-name="Group 1"><path id="Path_1" data-name="Path 1" class="cls-4" d="M187.93,204.13c.28-.14.28-.39.35-.59q1.84-5.65,3.68-11.32,1.93-5.94,3.85-11.87c.3-.93.33-.95,1.35-.95h9.45c1,0,1.11.07,1.11,1.14,0,2.65,0,5.29,0,7.94v26.28c0,.92-.07,1-.95,1H201.1c-1.39,0-1.38,0-1.38-1.33V190.74c-.32.08-.33.31-.4.5l-2.49,7.24q-2.79,8.13-5.61,16.26c-.35,1-.35,1-1.38,1-1.42,0-2.83,0-4.25,0l-.57,0a.52.52,0,0,1-.51-.34c-.1-.24-.19-.47-.27-.71q-3-8.85-6.05-17.71c-.65-1.91-1.3-3.81-2-5.72,0-.15-.11-.3-.17-.44a.26.26,0,0,0-.14-.11c-.13,0-.14.11-.15.2,0,.32,0,.63,0,1v22.4c0,.34,0,.69,0,1a.43.43,0,0,1-.41.44,4.86,4.86,0,0,1-.66,0h-6.24c-.5,0-.62-.14-.66-.61,0-.25,0-.5,0-.76V180.83c0-1.42,0-1.42,1.4-1.42h9.08c1.14,0,1.15,0,1.53,1.11L184,193q1.8,5.24,3.59,10.46A1.49,1.49,0,0,0,187.93,204.13Z"/><path id="Path_2" data-name="Path 2" class="cls-4" d="M147.22,179.4h13.61c.35,0,.69,0,1,0a.45.45,0,0,1,.42.43,5.44,5.44,0,0,1,0,.57v4.63a5.44,5.44,0,0,1,0,.57.44.44,0,0,1-.44.41c-.32,0-.63,0-.95,0h-8.22c-1.57,0-1.52-.09-1.52,1.47v26.66c0,.34,0,.69,0,1a.45.45,0,0,1-.41.49h-.06l-.56,0h-6c-1,0-1.07,0-1.08-1.06,0-1.7,0-3.4,0-5.1v-22c0-.35,0-.7,0-1a.42.42,0,0,0-.43-.42c-.31,0-.62,0-.94,0h-8.32c-1.32,0-1.33,0-1.33-1.29s0-2.84,0-4.25c0-1.06.07-1.13,1.13-1.13Z"/><path id="Path_3" data-name="Path 3" class="cls-4" d="M167.58,168.77a5.68,5.68,0,0,1,5.59-5.77h.23a5.77,5.77,0,0,1-.07,11.53,5.7,5.7,0,0,1-5.75-5.66Z"/><path id="Path_4" data-name="Path 4" class="cls-4" d="M207.91,168.71a5.68,5.68,0,0,1-5.55,5.81h-.24a5.76,5.76,0,1,1,0-11.52h0a5.69,5.69,0,0,1,5.79,5.56Z"/><path id="Path_5" data-name="Path 5" class="cls-4" d="M237.52,195.89a2,2,0,0,0,.89.5,8.36,8.36,0,0,1,5.15,6.75,12.21,12.21,0,0,1-.08,4.51,9.08,9.08,0,0,1-3.83,5.76,13.43,13.43,0,0,1-5.6,2.13,17.86,17.86,0,0,1-3,.22H215.35c-.32,0-.63,0-.94,0s-.44-.16-.47-.49a6.27,6.27,0,0,1,0-.75V180.65c0-.22,0-.44,0-.66,0-.41.17-.54.6-.57a6.26,6.26,0,0,1,.75,0h15.5a18.74,18.74,0,0,1,5.33.62,8.59,8.59,0,0,1,3.4,1.8,7.25,7.25,0,0,1,2.35,4.32,13,13,0,0,1,.11,3.58,7.42,7.42,0,0,1-3.05,5.22C238.49,195.26,238,195.55,237.52,195.89Zm-10.71,13.63h3.87a7,7,0,0,0,2.66-.54,3.93,3.93,0,0,0,2.51-3.48,8.77,8.77,0,0,0,0-1.7,4.22,4.22,0,0,0-3.33-4,8.36,8.36,0,0,0-2.33-.33h-7.36q-.33,0-.66,0a.44.44,0,0,0-.43.42q0,.38,0,.75v8c0,.68.11.77.76.8h4.35ZM228.52,194a17.43,17.43,0,0,0,2.17,0c1.79-.22,3.53-1.13,3.75-3.58,0-.12,0-.25,0-.37a3.75,3.75,0,0,0-3-4.19,8.09,8.09,0,0,0-2-.21h-6.71a4.87,4.87,0,0,0-.66,0,.43.43,0,0,0-.37.37,1.64,1.64,0,0,0,0,.38c0,2.27,0,4.54,0,6.8,0,.68.12.78.76.81h6.05Z"/></g><g id="Merchant" class="cls-5"><text class="cls-6" transform="translate(151.93 235)">Merchant</text></g><g id="Group_170" data-name="Group 170"><path id="Path_325" data-name="Path 325" class="cls-7" d="M227,168.88V144.23H204.8V130s.77-14-18.1-14c-17.57,0-18,14-18,14v14.22H147V168.9"/><line id="Line_8" data-name="Line 8" class="cls-7" x1="162.32" y1="144.23" x2="214.52" y2="144.23"/></g></g></g></g></g></svg>